<svg version="1.1" viewBox="0.0 0.0 2880.0 1920.0" fill="none" stroke="none" stroke-linecap="square" stroke-miterlimit="10" xmlns:xlink="http://www.w3.org/1999/xlink" xmlns="http://www.w3.org/2000/svg"><clipPath id="p.0"><path d="m0 0l2880.0 0l0 1920.0l-2880.0 0l0 -1920.0z" clip-rule="nonzero"/></clipPath><g clip-path="url(#p.0)"><path fill="#000000" fill-opacity="0.0" d="m0 0l2880.0 0l0 1920.0l-2880.0 0z" fill-rule="evenodd"/><path fill="#000000" fill-opacity="0.0" d="m80.632545 129.9685l2839.8425 0l0 1660.063l-2839.8425 0z" fill-rule="evenodd"/><path fill="#ffffff" d="m254.89818 616.4372q-19.140625 0 -40.84375 -6.078125q-21.6875 -6.0625 -39.890625 -16.796875l-0.46875 0l1.40625 19.609375l-35.9375 0l0 -109.203094l30.796875 0q6.078125 38.265594 29.40625 58.578094q23.328125 20.296875 56.92186 20.296875q24.265625 0 40.125 -12.828125q15.875 -12.84375 15.875 -31.046875q0 -14.9375 -10.5 -25.65625q-10.5 -10.7343445 -23.328125 -16.796844q-12.828125 -6.078125 -40.82811 -17.28125q-51.328125 -20.53125 -78.640625 -46.65625q-27.296875 -26.140625 -27.296875 -68.609375q0 -21.453125 10.734375 -41.75q10.734375 -20.3125 35.234375 -33.84375q24.5 -13.53125 63.234375 -13.53125q20.062485 0 41.999985 5.84375q21.9375 5.828125 36.390625 16.5625l0.46875 0l-1.859375 -19.140625l36.390625 0l0 108.734375l-30.796875 0q-6.0625 -38.265625 -26.828125 -58.328125q-20.765625 -20.078125 -52.968735 -20.078125q-21.0 0 -36.171875 11.4375q-15.15625 11.4375 -15.15625 28.703125q0 20.53125 17.265625 34.53125q17.265625 14.0 58.32811 30.796875q47.140625 18.671875 76.765625 43.171875q29.640625 24.5 29.640625 65.09372q0 27.53125 -14.9375 49.0q-14.9375 21.46875 -42.0 33.375q-27.0625 11.890625 -62.531235 11.890625zm269.26355 0q-34.078156 0 -61.140656 -14.46875q-27.0625 -14.46875 -42.46875 -41.53125q-15.390625 -27.0625 -15.390625 -62.99997q0 -37.796875 15.859375 -67.1875q15.875 -29.40625 42.703125 -45.734375q26.828125 -16.34375 59.03128 -16.34375q33.59375 0 60.1875 14.46875q26.609375 14.46875 42.0 41.765625q15.40625 27.296875 15.40625 63.703125q0 38.734344 -14.703125 67.671844q-14.6875 28.921875 -41.0625 44.796875q-26.359375 15.859375 -60.421875 15.859375zm0.921875 -33.140625q25.671875 0 35.9375 -23.796875q10.265625 -23.796875 10.265625 -59.734344q0 -40.125 -11.671875 -69.515625q-11.65625 -29.40625 -36.859375 -29.40625q-25.671906 0 -37.34378 24.265625q-11.65625 24.265625 -11.65625 59.734375q0 40.59372 12.59375 69.53122q12.609375 28.921875 38.734406 28.921875zm245.47119 33.140625q-41.53125 0 -59.5 -24.265625q-17.96875 -24.265625 -17.96875 -78.875l0 -53.65622q0 -19.59375 1.40625 -40.59375l-32.671875 1.390625l0 -35.46875q29.40625 0 47.59375 -4.1875q18.203125 -4.203125 24.265625 -9.8125l25.671875 0l0 142.79684q0 30.796875 7.921875 45.265625q7.9375 14.46875 25.203125 14.46875q11.671875 0 24.03125 -6.53125q12.375 -6.53125 20.78125 -15.859375l0 -91.46872q0 -21.9375 1.859375 -40.59375l-32.671875 1.390625l0 -35.46875q29.40625 0 47.375 -4.1875q17.96875 -4.203125 24.03125 -9.8125l25.671875 0l0 162.87497q0 22.390625 -1.875 41.0625q14.9375 -1.40625 30.328125 -1.40625l0 35.46875l-88.65625 0l-2.796875 -24.265625l-0.46875 0q-17.265625 14.9375 -33.375 23.34375q-16.09375 8.390625 -36.15625 8.390625zm191.7998 -37.796875q17.71875 0 22.625 -9.796875q4.90625 -9.8125 4.90625 -31.734375l0 -78.40622q0 -21.0 1.859375 -39.65625l-32.671875 1.390625l0 -35.46875q29.40625 0 47.609375 -4.1875q18.203125 -4.203125 24.265625 -9.8125l22.859375 0q0.9375 7.0 1.40625 18.203125q0.46875 11.203125 0.46875 21.9375l0.921875 0q31.734375 -42.9375 67.203125 -42.9375q17.734375 0 29.15625 9.8125q11.4375 9.796875 11.4375 28.921875q0 12.140625 -7.9375 22.40625q-7.921875 10.265625 -23.78125 10.265625q-11.671875 0 -20.78125 -6.0625q-9.09375 -6.078125 -10.484375 -21.015625q-13.078125 0 -26.84375 15.171875q-13.765625 15.171875 -18.421875 30.09375l0 76.078094q0 22.390625 -1.875 41.0625q14.9375 -1.40625 30.328125 -1.40625l0 35.46875l-122.25 0l0 -30.328125zm350.9131 -0.46875q12.609375 -0.46875 19.140625 -3.03125q6.53125 -2.578125 10.265625 -10.96875q3.734375 -8.40625 3.734375 -26.59375l0 -178.73434q0 -26.140625 1.859375 -42.0l-35.0 1.390625l0 -35.921875l129.26562 -0.9375q56.0 -0.46875 87.734375 20.0625q31.734375 20.53125 31.734375 60.203125q0 22.859375 -17.03125 42.234375q-17.03125 19.359375 -50.171875 28.234375l0 0.46875q44.796875 7.0 67.65625 29.875q22.875 22.859375 22.875 53.65622q0 44.328125 -31.5 68.59375q-31.5 24.265625 -81.890625 24.265625l-158.67188 0l0 -30.796875zm125.0625 -153.06247q27.53125 -0.46875 39.890625 -17.5q12.375 -17.03125 12.375 -45.03125q0 -25.203125 -14.0 -36.859375q-14.0 -11.671875 -34.0625 -11.671875q-9.796875 0 -15.640625 2.328125q-5.828125 2.328125 -9.328125 10.96875q-3.5 8.625 -3.5 25.890625l0 72.34375l24.265625 -0.46875zm-26.125 150.73434q30.796875 0 45.265625 -0.46875q27.53125 -1.40625 41.0625 -17.5q13.53125 -16.109375 13.53125 -43.171875q0 -29.859344 -17.265625 -43.15622q-17.265625 -13.3125 -42.921875 -13.3125q-25.671875 0 -37.8125 0.46875l0 76.06247q0 25.203125 -1.859375 41.078125zm315.92847 40.59375q-34.0625 0 -60.203125 -15.15625q-26.125 -15.171875 -40.59375 -43.171875q-14.46875 -28.0 -14.46875 -65.34372q0 -32.65625 14.6875 -61.359375q14.703125 -28.703125 41.296875 -45.96875q26.609375 -17.265625 60.671875 -17.265625q45.265625 0 75.359375 26.609375q30.109375 26.59375 29.640625 88.65625l-153.0625 2.796875q0 41.06247 15.625 64.87497q15.640625 23.796875 50.171875 23.796875q16.34375 0 35.0 -8.390625q18.671875 -8.40625 33.609375 -26.609375l21.0 19.59375q-39.671875 56.9375 -108.734375 56.9375zm42.0 -162.85934q-1.40625 -52.734375 -38.265625 -52.734375q-20.078125 0 -31.984375 14.234375q-11.890625 14.234375 -15.625 38.5l85.875 0zm209.06104 162.85934q-34.0625 0 -60.203125 -15.15625q-26.125 -15.171875 -40.59375 -43.171875q-14.46875 -28.0 -14.46875 -65.34372q0 -32.65625 14.6875 -61.359375q14.703125 -28.703125 41.296875 -45.96875q26.609375 -17.265625 60.671875 -17.265625q45.265625 0 75.35925 26.609375q30.109375 26.59375 29.640625 88.65625l-153.06238 2.796875q0 41.06247 15.625 64.87497q15.640625 23.796875 50.171875 23.796875q16.34375 0 35.0 -8.390625q18.671753 -8.40625 33.609253 -26.609375l21.0 19.59375q-39.671875 56.9375 -108.73425 56.9375zm42.0 -162.85934q-1.40625 -52.734375 -38.265625 -52.734375q-20.078125 0 -31.984375 14.234375q-11.890625 14.234375 -15.625 38.5l85.875 0zm98.46716 125.06247q17.71875 0 22.625 -9.796875q4.90625 -9.8125 4.90625 -31.734375l0 -78.40622q0 -21.0 1.859375 -39.65625l-32.671875 1.390625l0 -35.46875q29.40625 0 47.609375 -4.1875q18.203125 -4.203125 24.265625 -9.8125l22.859375 0q0.9375 7.0 1.40625 18.203125q0.46875 11.203125 0.46875 21.9375l0.921875 0q31.734375 -42.9375 67.203125 -42.9375q17.734375 0 29.15625 9.8125q11.4375 9.796875 11.4375 28.921875q0 12.140625 -7.9375 22.40625q-7.921875 10.265625 -23.78125 10.265625q-11.671875 0 -20.78125 -6.0625q-9.09375 -6.078125 -10.484375 -21.015625q-13.078125 0 -26.84375 15.171875q-13.765625 15.171875 -18.421875 30.09375l0 76.078094q0 22.390625 -1.875 41.0625q14.9375 -1.40625 30.328125 -1.40625l0 35.46875l-122.25 0l0 -30.328125zm449.38184 37.796875q-28.46875 0 -53.90625 -9.328125q-25.421875 -9.34375 -41.296875 -28.9375q-15.859375 -19.609375 -15.859375 -48.53125q0 -30.34372 20.296875 -54.828094q20.296875 -24.5 52.5 -36.171875q-23.328125 -25.203125 -31.03125 -45.03125q-7.703125 -19.828125 -7.234375 -41.765625q0.46875 -35.46875 24.734375 -56.234375q24.265625 -20.765625 64.390625 -20.765625q23.8125 0 42.234375 10.03125q18.4375 10.03125 28.703125 26.84375q10.265625 16.796875 10.265625 36.390625q0 27.0625 -18.90625 50.40625q-18.890625 23.328125 -48.296875 40.59375q2.8125 3.734375 27.078125 27.765625q24.265625 24.03125 48.0625 46.421844l0.46875 0q2.328125 -9.3280945 2.328125 -23.328094q0 -18.65625 -6.078125 -26.59375q-6.0625 -7.9375 -18.65625 -8.875l0 -29.859375l78.40625 0l0 35.0q-6.078125 0 -25.671875 -1.875l0 0.46875q5.125 11.671875 5.125 28.46875q0 26.140594 -8.859375 50.40622l7.0 6.0625q41.53125 35.0 57.40625 35.0l0 30.796875l-49.9375 0q-4.203125 0 -17.5 -7.46875q-13.296875 -7.46875 -28.234375 -19.125q-18.671875 16.328125 -43.40625 25.203125q-24.71875 8.859375 -54.125 8.859375zm5.59375 -202.06247q16.8125 -12.609375 26.140625 -32.4375q9.328125 -19.828125 9.328125 -36.15625q0 -17.265625 -8.40625 -27.765625q-8.390625 -10.5 -22.390625 -10.5q-13.53125 0 -22.40625 11.203125q-8.859375 11.1875 -8.859375 30.796875q0 13.984375 7.703125 32.421875q7.703125 18.4375 18.890625 32.4375zm9.34375 168.92184q34.0625 0 58.328125 -21.921875l-23.328125 -21.0q-43.875 -40.140594 -74.671875 -75.140594q-12.125 9.796875 -17.5 24.96875q-5.359375 15.171875 -5.359375 27.765594q0 31.265625 16.5625 48.296875q16.5625 17.03125 45.96875 17.03125z" fill-rule="nonzero"/><path fill="#ffffff" d="m134.96068 1138.1716q12.609375 -0.46875 19.140625 -3.03125q6.53125 -2.578125 10.265625 -10.96875q3.734375 -8.40625 3.734375 -26.59375l0 -178.73438q0 -26.140625 1.859375 -42.0l-35.0 1.390625l0 -35.921875l135.79686 -0.46875q58.34375 0 98.703125 23.109375q40.359375 23.09375 60.1875 59.953125q19.84375 36.859375 19.84375 77.46875q0 41.0625 -18.90625 79.09375q-18.890625 38.03125 -59.734375 62.765625q-40.828125 24.734375 -102.421875 24.734375l-133.46873 0l0 -30.796875zm143.26561 -3.265625q32.671875 0 54.59375 -17.265625q21.9375 -17.265625 32.4375 -45.03125q10.5 -27.765625 10.5 -60.4375q0 -70.9375 -28.9375 -105.0q-28.921875 -34.0625 -81.65625 -34.0625q-15.874985 0 -22.64061 7.9375q-6.765625 7.921875 -6.765625 31.734375l0 179.65625q0 26.125 -1.859375 42.0q2.328125 -0.46875 8.859375 -0.46875l20.07811 0.46875q6.0625 0.46875 15.390625 0.46875zm270.66916 -245.46875q-15.875 0 -26.140625 -10.953125q-10.265625 -10.96875 -10.265625 -26.84375q0 -15.859375 10.734375 -27.296875q10.734375 -11.4375 25.203125 -11.4375q14.921875 0 24.953125 11.203125q10.046875 11.203125 10.046875 27.53125q0 16.328125 -9.578125 27.0625q-9.5625 10.734375 -24.953125 10.734375zm-65.796875 249.20312q17.71875 0 22.625 -9.796875q4.90625 -9.8125 4.90625 -31.734375l0 -77.46875q0 -21.9375 1.859375 -40.59375l-32.671875 1.390625l0 -35.46875q29.40625 0 47.609375 -4.1875q18.203125 -4.203125 24.265625 -9.8125l25.203125 0l0 162.875q0 22.390625 -1.875 41.0625q14.9375 -1.40625 30.328186 -1.40625l0 35.46875l-122.25006 0l0 -30.328125zm259.92474 37.796875q-20.078125 0 -39.21875 -5.140625q-19.125 -5.125 -29.84375 -13.0625l-0.46875 0l1.390625 14.0l-35.46875 0l-1.859375 -80.265625l30.328125 0q2.34375 21.46875 22.640625 36.171875q20.296875 14.703125 49.6875 14.703125q13.078125 0 22.640625 -6.0625q9.5625 -6.078125 9.5625 -17.28125q0 -8.390625 -6.0625 -13.984375q-6.0625 -5.609375 -14.46875 -9.34375q-8.390625 -3.734375 -33.59375 -13.53125q-29.875 -11.671875 -44.8125 -19.140625q-14.921875 -7.46875 -26.828125 -22.15625q-11.890625 -14.703125 -11.890625 -38.03125q0 -19.140625 9.5625 -36.171875q9.5625 -17.03125 29.390625 -28.0q19.84375 -10.96875 48.78125 -10.96875q13.53125 0 29.390625 4.203125q15.875 4.203125 26.609375 11.671875l0.453125 0l-0.453125 -13.546875l35.453125 0l0 82.609375l-30.328125 0q-4.203125 -24.265625 -21.46875 -38.265625q-17.265625 -14.0 -42.46875 -14.0q-13.0625 0 -21.9375 6.0625q-8.859375 6.0625 -8.859375 18.671875q0 13.0625 10.265625 19.359375q10.265625 6.296875 34.53125 14.234375q2.8125 0.46875 12.140625 3.734375q39.65625 14.0 60.890625 32.671875q21.234375 18.65625 21.234375 48.984375q0 23.34375 -11.90625 39.453125q-11.890625 16.09375 -31.265625 24.265625q-19.359375 8.15625 -41.75 8.15625zm211.39075 0q-72.796875 0 -72.796875 -89.59375l0.9375 -112.46875l-31.734375 0l0 -38.734375q14.921875 0 28.21875 -9.328125q13.3125 -9.34375 22.640625 -22.875q9.328125 -13.53125 13.0625 -26.125l34.53125 0l-0.453125 58.328125l59.265625 0l0 35.9375l-59.265625 1.390625l-0.46875 114.796875q0 45.265625 28.0 45.265625q22.390625 0 42.453125 -28.0l22.40625 21.0q-21.9375 32.203125 -43.875 41.3125q-21.921875 9.09375 -42.921875 9.09375zm100.33838 -37.796875q17.71875 0 22.625 -9.796875q4.90625 -9.8125 4.90625 -31.734375l0 -78.40625q0 -21.0 1.859375 -39.65625l-32.671875 1.390625l0 -35.46875q29.40625 0 47.609375 -4.1875q18.203125 -4.203125 24.265625 -9.8125l22.859375 0q0.9375 7.0 1.40625 18.203125q0.46875 11.203125 0.46875 21.9375l0.921875 0q31.734375 -42.9375 67.203125 -42.9375q17.734375 0 29.15625 9.8125q11.4375 9.796875 11.4375 28.921875q0 12.140625 -7.9375 22.40625q-7.921875 10.265625 -23.78125 10.265625q-11.671875 0 -20.78125 -6.0625q-9.09375 -6.078125 -10.484375 -21.015625q-13.078125 0 -26.84375 15.171875q-13.765625 15.171875 -18.421875 30.09375l0 76.078125q0 22.390625 -1.875 41.0625q14.9375 -1.40625 30.328125 -1.40625l0 35.46875l-122.25 0l0 -30.328125zm289.79187 -249.20312q-15.875 0 -26.140625 -10.953125q-10.265625 -10.96875 -10.265625 -26.84375q0 -15.859375 10.734375 -27.296875q10.734375 -11.4375 25.203125 -11.4375q14.921875 0 24.953125 11.203125q10.046875 11.203125 10.046875 27.53125q0 16.328125 -9.578125 27.0625q-9.5625 10.734375 -24.953125 10.734375zm-65.796875 249.20312q17.71875 0 22.625 -9.796875q4.90625 -9.8125 4.90625 -31.734375l0 -77.46875q0 -21.9375 1.859375 -40.59375l-32.671875 1.390625l0 -35.46875q29.40625 0 47.609375 -4.1875q18.203125 -4.203125 24.265625 -9.8125l25.203125 0l0 162.875q0 22.390625 -1.875 41.0625q14.9375 -1.40625 30.328125 -1.40625l0 35.46875l-122.25 0l0 -30.328125zm279.51843 37.796875q-16.328125 0 -34.765625 -6.3125q-18.4375 -6.296875 -32.90625 -21.6875l-0.453125 0l-13.53125 20.53125l-28.0 0l0 -263.65625q0 -27.078125 1.390625 -40.609375l-32.65625 1.40625l0 -35.46875q29.390625 0 47.59375 -4.1875q18.203125 -4.203125 24.265625 -9.8125l25.203125 0l0 136.73438q28.453125 -25.203125 63.0 -25.203125q28.0 0 49.21875 14.46875q21.234375 14.46875 33.140625 41.296875q11.90625 26.828125 11.90625 62.296875q0 37.796875 -13.78125 67.203125q-13.765625 29.40625 -39.4375 46.203125q-25.65625 16.796875 -60.1875 16.796875zm-7.9375 -34.0625q28.0 0 40.359375 -25.203125q12.375 -25.203125 12.375 -63.9375q0 -34.53125 -12.375 -58.796875q-12.359375 -24.265625 -37.09375 -24.265625q-11.65625 0 -22.15625 5.375q-10.5 5.359375 -17.03125 14.6875l0 108.734375q0 22.875 10.5 33.140625q10.5 10.265625 25.421875 10.265625zm252.00342 34.0625q-41.53125 0 -59.5 -24.265625q-17.96875 -24.265625 -17.96875 -78.875l0 -53.65625q0 -19.59375 1.40625 -40.59375l-32.671875 1.390625l0 -35.46875q29.40625 0 47.59375 -4.1875q18.203125 -4.203125 24.265625 -9.8125l25.671875 0l0 142.79688q0 30.796875 7.921875 45.265625q7.9375 14.46875 25.203125 14.46875q11.671875 0 24.03125 -6.53125q12.375 -6.53125 20.78125 -15.859375l0 -91.46875q0 -21.9375 1.859375 -40.59375l-32.671875 1.390625l0 -35.46875q29.40625 0 47.375 -4.1875q17.96875 -4.203125 24.03125 -9.8125l25.671875 0l0 162.875q0 22.390625 -1.875 41.0625q14.9375 -1.40625 30.328125 -1.40625l0 35.46875l-88.65625 0l-2.796875 -24.265625l-0.46875 0q-17.265625 14.9375 -33.375 23.34375q-16.09375 8.390625 -36.15625 8.390625zm282.32373 0q-72.796875 0 -72.796875 -89.59375l0.9375 -112.46875l-31.734375 0l0 -38.734375q14.921875 0 28.21875 -9.328125q13.3125 -9.34375 22.640625 -22.875q9.328125 -13.53125 13.0625 -26.125l34.53125 0l-0.453125 58.328125l59.265625 0l0 35.9375l-59.265625 1.390625l-0.46875 114.796875q0 45.265625 28.0 45.265625q22.390625 0 42.453125 -28.0l22.40625 21.0q-21.9375 32.203125 -43.875 41.3125q-21.921875 9.09375 -42.921875 9.09375zm210.93213 0q-34.0625 0 -60.203125 -15.15625q-26.125 -15.171875 -40.59375 -43.171875q-14.46875 -28.0 -14.46875 -65.34375q0 -32.65625 14.6875 -61.359375q14.703125 -28.703125 41.296875 -45.96875q26.609375 -17.265625 60.671875 -17.265625q45.265625 0 75.359375 26.609375q30.109375 26.59375 29.640625 88.65625l-153.0625 2.796875q0 41.0625 15.625 64.875q15.640625 23.796875 50.171875 23.796875q16.34375 0 35.0 -8.390625q18.671875 -8.40625 33.609375 -26.609375l21.0 19.59375q-39.671875 56.9375 -108.734375 56.9375zm42.0 -162.85938q-1.40625 -52.734375 -38.265625 -52.734375q-20.078125 0 -31.984375 14.234375q-11.890625 14.234375 -15.625 38.5l85.875 0zm188.52979 162.85938q-28.0 0 -49.234375 -14.46875q-21.234375 -14.46875 -33.140625 -41.296875q-11.890625 -26.828125 -11.890625 -62.296875q0 -37.34375 14.453125 -66.96875q14.46875 -29.640625 40.828125 -46.4375q26.375 -16.796875 60.4375 -16.796875q18.203125 0 41.546875 8.40625l0 -30.796875q0 -22.40625 1.859375 -41.078125q-15.40625 1.40625 -33.125 1.40625l0 -35.46875q29.390625 0 47.59375 -4.1875q18.203125 -4.203125 24.265625 -9.8125l25.203125 0l0 277.20312q0 22.390625 -1.875 41.0625q15.40625 -1.40625 30.328125 -1.40625l0 35.46875l-88.65625 0l-2.328125 -21.46875l-0.46875 0q-27.53125 28.9375 -65.796875 28.9375zm24.265625 -42.46875q11.65625 0 21.921875 -6.0625q10.265625 -6.0625 16.8125 -16.34375l0 -139.98438q-5.140625 -3.734375 -14.484375 -6.296875q-9.328125 -2.578125 -18.65625 -2.578125q-29.859375 0.46875 -42.703125 25.671875q-12.828125 25.203125 -12.828125 63.0q0 33.59375 12.359375 58.09375q12.375 24.5 37.578125 24.5z" fill-rule="nonzero"/><path fill="#ffffff" d="m254.89818 1736.4373q-19.140625 0 -40.84375 -6.078125q-21.6875 -6.0625 -39.890625 -16.796875l-0.46875 0l1.40625 19.609375l-35.9375 0l0 -109.203125l30.796875 0q6.078125 38.265625 29.40625 58.578125q23.328125 20.296875 56.92186 20.296875q24.265625 0 40.125 -12.828125q15.875 -12.84375 15.875 -31.046875q0 -14.9375 -10.5 -25.65625q-10.5 -10.734375 -23.328125 -16.796875q-12.828125 -6.078125 -40.82811 -17.28125q-51.328125 -20.53125 -78.640625 -46.65625q-27.296875 -26.140625 -27.296875 -68.609375q0 -21.453125 10.734375 -41.75q10.734375 -20.3125 35.234375 -33.84375q24.5 -13.53125 63.234375 -13.53125q20.062485 0 41.999985 5.84375q21.9375 5.828125 36.390625 16.5625l0.46875 0l-1.859375 -19.140625l36.390625 0l0 108.734375l-30.796875 0q-6.0625 -38.265625 -26.828125 -58.328125q-20.765625 -20.078125 -52.968735 -20.078125q-21.0 0 -36.171875 11.4375q-15.15625 11.4375 -15.15625 28.703125q0 20.53125 17.265625 34.53125q17.265625 14.0 58.32811 30.796875q47.140625 18.671875 76.765625 43.171875q29.640625 24.5 29.640625 65.09375q0 27.53125 -14.9375 49.0q-14.9375 21.46875 -42.0 33.375q-27.0625 11.890625 -62.531235 11.890625zm199.72395 119.0q-18.203125 0 -30.34375 -10.734375q-12.125 -10.734375 -12.125 -27.53125q0 -13.078125 8.625 -22.640625q8.640625 -9.5625 21.71875 -9.5625q10.265625 0 17.03125 7.234375q6.765625 7.234375 6.765625 18.890625q0 3.734375 -0.46875 6.078125l0 0.46875q8.859375 0 19.828125 -22.40625q10.96875 -22.40625 19.84375 -54.125l-73.734375 -147.9375q-12.140625 -23.328125 -16.34375 -36.625q-4.1875 -13.3125 -6.0625 -26.375l-21.46875 0.9375l0 -35.46875l116.203125 0l0 29.859375q-19.59375 2.34375 -19.59375 18.203125q0 7.9375 4.65625 18.203125l45.734375 104.53125l0.46875 0l9.796875 -31.265625q5.140625 -17.734375 19.609375 -61.59375q10.265625 -32.671875 19.59375 -43.875l0 -0.46875l-26.59375 1.875l0 -35.46875l83.06256 0l0 29.859375q-13.53125 3.265625 -23.34375 16.8125q-9.796875 13.53125 -17.734375 36.390625l-58.328186 166.59375q-14.0 41.53125 -25.671875 64.390625q-11.65625 22.875 -25.890625 34.3125q-14.234375 11.4375 -35.234375 11.4375zm314.53387 -119.0q-20.078125 0 -39.21875 -5.140625q-19.125 -5.125 -29.84375 -13.0625l-0.46875 0l1.390625 14.0l-35.46875 0l-1.859375 -80.265625l30.328125 0q2.34375 21.46875 22.640625 36.171875q20.296875 14.703125 49.6875 14.703125q13.078125 0 22.640625 -6.0625q9.5625 -6.078125 9.5625 -17.28125q0 -8.390625 -6.0625 -13.984375q-6.0625 -5.609375 -14.46875 -9.34375q-8.390625 -3.734375 -33.59375 -13.53125q-29.875 -11.671875 -44.8125 -19.140625q-14.921875 -7.46875 -26.828125 -22.15625q-11.890625 -14.703125 -11.890625 -38.03125q0 -19.140625 9.5625 -36.171875q9.5625 -17.03125 29.390625 -28.0q19.84375 -10.96875 48.78125 -10.96875q13.53125 0 29.390625 4.203125q15.875 4.203125 26.609375 11.671875l0.453125 0l-0.453125 -13.546875l35.453125 0l0 82.609375l-30.328125 0q-4.203125 -24.265625 -21.46875 -38.265625q-17.265625 -14.0 -42.46875 -14.0q-13.0625 0 -21.9375 6.0625q-8.859375 6.0625 -8.859375 18.671875q0 13.0625 10.265625 19.359375q10.265625 6.296875 34.53125 14.234375q2.8125 0.46875 12.140625 3.734375q39.65625 14.0 60.890625 32.671875q21.234375 18.65625 21.234375 48.984375q0 23.34375 -11.90625 39.453125q-11.890625 16.09375 -31.265625 24.265625q-19.359375 8.15625 -41.75 8.15625zm211.39075 0q-72.796875 0 -72.796875 -89.59375l0.9375 -112.46875l-31.734375 0l0 -38.734375q14.921875 0 28.21875 -9.328125q13.3125 -9.34375 22.640625 -22.875q9.328125 -13.53125 13.0625 -26.125l34.53125 0l-0.453125 58.328125l59.265625 0l0 35.9375l-59.265625 1.390625l-0.46875 114.796875q0 45.265625 28.0 45.265625q22.390625 0 42.453125 -28.0l22.40625 21.0q-21.9375 32.203125 -43.875 41.3125q-21.921875 9.09375 -42.921875 9.09375zm210.93213 0q-34.0625 0 -60.203125 -15.15625q-26.125 -15.171875 -40.59375 -43.171875q-14.46875 -28.0 -14.46875 -65.34375q0 -32.65625 14.6875 -61.359375q14.703125 -28.703125 41.296875 -45.96875q26.609375 -17.265625 60.671875 -17.265625q45.265625 0 75.359375 26.609375q30.109375 26.59375 29.640625 88.65625l-153.0625 2.796875q0 41.0625 15.625 64.875q15.640625 23.796875 50.171875 23.796875q16.34375 0 35.0 -8.390625q18.671875 -8.40625 33.609375 -26.609375l21.0 19.59375q-39.671875 56.9375 -108.734375 56.9375zm42.0 -162.85938q-1.40625 -52.734375 -38.265625 -52.734375q-20.078125 0 -31.984375 14.234375q-11.890625 14.234375 -15.625 38.5l85.875 0zm98.467285 125.0625q17.71875 0 22.625 -9.796875q4.90625 -9.8125 4.90625 -31.734375l0 -78.40625q0 -21.0 1.859375 -39.65625l-32.671875 1.390625l0 -35.46875q29.40625 0 47.609375 -4.1875q18.203125 -4.203125 24.265625 -9.8125l22.859375 0q0 0.9375 1.875 23.34375l0.921875 0q14.46875 -11.671875 32.671875 -18.90625q18.203125 -7.234375 35.46875 -7.234375q21.0 0 35.234375 7.703125q14.234375 7.703125 22.625 23.09375q16.796875 -14.0 37.328125 -22.390625q20.546875 -8.40625 38.734375 -8.40625q38.734375 0 57.625 22.40625q18.90625 22.390625 18.90625 74.65625l0 68.609375q0 22.390625 -1.859375 41.0625q14.9375 -1.40625 30.328125 -1.40625l0 35.46875l-118.0625 0l0 -30.328125q14.9375 0 19.125 -10.03125q4.203125 -10.046875 4.203125 -31.5l0 -71.40625q-0.453125 -29.390625 -9.796875 -41.75q-9.328125 -12.375 -27.0625 -12.375q-20.53125 0 -40.125 15.390625q4.1875 18.671875 4.1875 44.34375l0 62.53125q0 22.390625 -1.859375 41.0625q14.9375 -1.40625 30.328125 -1.40625l0 35.46875l-120.390625 0l0 -30.328125q16.328125 0 20.984375 -9.796875q4.671875 -9.8125 4.671875 -31.734375l-0.453125 -72.796875q0 -28.9375 -8.40625 -40.828125q-8.40625 -11.90625 -25.203125 -12.375q-20.53125 0 -39.65625 17.265625l0 105.46875q0 22.390625 -1.875 41.0625q14.9375 -1.40625 28.0 -1.40625l0 35.46875l-119.921875 0l0 -30.328125zm536.65186 37.796875q-20.078125 0 -39.21875 -5.140625q-19.125 -5.125 -29.84375 -13.0625l-0.46875 0l1.390625 14.0l-35.46875 0l-1.859375 -80.265625l30.328125 0q2.34375 21.46875 22.640625 36.171875q20.296875 14.703125 49.6875 14.703125q13.078125 0 22.640625 -6.0625q9.5625 -6.078125 9.5625 -17.28125q0 -8.390625 -6.0625 -13.984375q-6.0625 -5.609375 -14.46875 -9.34375q-8.390625 -3.734375 -33.59375 -13.53125q-29.875 -11.671875 -44.8125 -19.140625q-14.921875 -7.46875 -26.828125 -22.15625q-11.890625 -14.703125 -11.890625 -38.03125q0 -19.140625 9.5625 -36.171875q9.5625 -17.03125 29.390625 -28.0q19.84375 -10.96875 48.78125 -10.96875q13.53125 0 29.390625 4.203125q15.875 4.203125 26.609375 11.671875l0.453125 0l-0.453125 -13.546875l35.453125 0l0 82.609375l-30.328125 0q-4.203125 -24.265625 -21.46875 -38.265625q-17.265625 -14.0 -42.46875 -14.0q-13.0625 0 -21.9375 6.0625q-8.859375 6.0625 -8.859375 18.671875q0 13.0625 10.265625 19.359375q10.265625 6.296875 34.53125 14.234375q2.8125 0.46875 12.140625 3.734375q39.65625 14.0 60.890625 32.671875q21.234375 18.65625 21.234375 48.984375q0 23.34375 -11.90625 39.453125q-11.890625 16.09375 -31.265625 24.265625q-19.359375 8.15625 -41.75 8.15625zm154.922 0q-14.9375 0 -24.734375 -10.5q-9.796875 -10.5 -9.796875 -25.90625q0 -14.921875 10.265625 -25.65625q10.265625 -10.734375 23.796875 -10.734375q14.46875 0 24.03125 10.734375q9.578125 10.734375 9.578125 25.65625q0 15.40625 -9.109375 25.90625q-9.09375 10.5 -24.03125 10.5z" fill-rule="nonzero"/></g></svg>