<svg version="1.1" viewBox="0.0 0.0 256.0 256.0" fill="none" stroke="none" stroke-linecap="square" stroke-miterlimit="10" xmlns:xlink="http://www.w3.org/1999/xlink" xmlns="http://www.w3.org/2000/svg"><clipPath id="p.0"><path d="m0 0l256.0 0l0 256.0l-256.0 0l0 -256.0z" clip-rule="nonzero"/></clipPath><g clip-path="url(#p.0)"><path fill="#000000" fill-opacity="0.0" d="m0 0l256.0 0l0 256.0l-256.0 0z" fill-rule="evenodd"/><path fill="#000000" fill-opacity="0.0" d="m-16.149607 -50.007874l302.4567 0l0 256.0l-302.4567 0z" fill-rule="evenodd"/><path fill="#ffffff" d="m64.319145 72.2265q-7.9375 0 -13.078125 -5.484375q-5.125 -5.484375 -5.125 -13.40625q0 -7.9375 5.359375 -13.65625q5.375 -5.71875 12.609375 -5.71875q7.46875 0 12.484375 5.609375q5.015625 5.59375 5.015625 13.765625q0 8.15625 -4.78125 13.53125q-4.78125 5.359375 -12.484375 5.359375zm-32.90625 124.59375q8.875002 0 11.312502 -4.890625q2.453125 -4.90625 2.453125 -15.875l0 -38.734375q0 -10.953125 0.9375 -20.296875l-16.328127 0.703125l0 -17.734375q14.703127 0 23.796877 -2.09375q9.09375 -2.109375 12.125 -4.90625l12.609375 0l0 81.4375q0 11.203125 -0.9375 20.53125q7.46875 -0.703125 15.171875 -0.703125l0 17.734375l-61.140625 0l0 -15.171875zm76.298294 0q8.875 0 11.3125 -4.890625q2.453125 -4.90625 2.453125 -15.875l0 -39.1875q0 -10.5 0.9375 -19.84375l-16.328125 0.703125l0 -17.734375q14.703125 0 23.796867 -2.09375q9.09375 -2.109375 12.125 -4.90625l11.4375 0q0 0.46875 0.9375 11.671875l0.46875 0q6.765625 -5.375 16.671875 -9.21875q9.921875 -3.84375 16.921875 -3.84375q21.234375 0 30.328125 12.140625q9.109375 12.125 9.109375 39.421875l0 31.265625q0 11.203125 -0.9375 20.53125q7.703125 -0.703125 15.17186 -0.703125l0 17.734375l-61.14061 0l0 -15.171875q8.875 0 11.4375 -4.890625q2.5625 -4.90625 2.5625 -15.875l-0.234375 -33.125q0 -15.40625 -4.3125 -22.640625q-4.3125 -7.234375 -14.578125 -7.234375q-5.609375 0 -11.4375 2.453125q-5.828125 2.453125 -9.796875 6.1875l0 52.734375q0 11.203125 -0.9375 20.53125q7.46875 -0.703125 15.171875 -0.703125l0 17.734375l-61.140617 0l0 -15.171875z" fill-rule="nonzero"/></g></svg>